<svg width="132" height="36" viewBox="0 0 132 36" fill="none" xmlns="http://www.w3.org/2000/svg">
<g clip-path="url(#clip0_2469_78602)">
<path d="M129.846 0.640746H111.959C110.852 0.640746 110.814 2.04082 108.608 1.26233C104.454 -0.520022 100.178 -0.307761 95.7276 1.26233C93.7519 1.95935 91.6936 0.640746 90.3755 0.640746H67.9234C67.3242 0.640746 66.7527 0.885155 66.3472 1.31664L64.7617 2.99432C64.3684 3.41072 63.6494 3.20856 63.5603 2.65034C63.4036 1.68477 62.8935 0.640746 61.4156 0.640746H57.3136C56.1245 0.640746 55.1628 1.5852 55.1628 2.75293C55.1628 3.12105 54.714 3.43824 54.4377 3.09088C50.7871 -1.09787 41.6309 -0.864935 36.8192 3.09088C36.5304 3.32624 36.0941 3.12105 36.0941 2.75293C36.0941 1.5852 35.1323 0.640746 33.9432 0.640746H5.96591C4.77681 0.640746 3.81507 1.58821 3.81507 2.75293V7.20889C3.81507 7.73995 3.61228 8.59387 2.20809 8.59387C0.803897 8.59387 0.0603216 9.53832 0.0603216 10.7061C0.0603216 10.7061 -0.640238 15.8133 2.73351 18.4626C4.35586 19.7359 6.60195 20.3756 9.42262 20.3756H15.194C16.8871 20.3756 16.5306 21.3472 16.5706 23.1758L16.7365 31.1172C16.7887 33.4678 19.5726 35.5089 21.874 35.5089C31.0733 35.5089 29.2041 27.3901 30.2221 33.403C31.2489 38.2047 37.6438 35.0309 40.3737 34.0065C42.8462 33.0787 45.5349 36.0601 47.9947 33.403C48.6123 32.7391 49.5401 32.2986 50.2345 32.884C53.3241 35.6147 57.4773 35.1622 61.7241 33.403C62.3079 33.0711 62.7838 33.0437 63.1494 33.602C63.1494 33.602 64.3129 35.7626 68.1662 35.7626C71.3002 35.7626 72.0916 33.4647 72.1654 32.2396C72.1654 31.5795 72.6914 31.6478 72.952 32.0707C74.1446 34.0065 75.6571 34.671 78.2168 34.671C80.7766 34.671 81.242 32.8219 82.7545 32.8219C89.3949 33.9651 96.089 34.7051 102.738 35.7626C106.81 36.4103 109.937 33.941 111.144 29.1525C111.144 29.1525 112.992 22.2615 112.992 22.2585C113.751 19.6515 116.544 20.1373 119.629 20.1373H123.916C125.105 20.1373 126.067 19.1928 126.067 18.0251V12.4954C126.067 9.12494 126.729 9.3271 129.849 9.3271C131.597 9.3271 132 8.38266 132 7.21492V2.75293C132 1.5852 131.038 0.640746 129.849 0.640746H129.846Z" fill="#252231"/>
<path fill-rule="evenodd" clip-rule="evenodd" d="M102.648 17.6795C99.7007 17.6795 97.3492 17.0245 95.673 15.7226C93.965 14.3969 93.1071 12.5504 93.1071 10.2226C93.1071 7.89486 93.973 6.04841 95.673 4.73064C97.3492 3.42865 99.7007 2.77372 102.648 2.77372C105.595 2.77372 107.939 3.42865 109.623 4.73064C111.331 6.04841 112.189 7.90275 112.189 10.2226C112.189 12.5426 111.323 14.3969 109.623 15.7147C109.536 15.7812 109.448 15.8457 109.358 15.9083C109.035 16.133 108.633 16.1865 108.241 16.1565C106.589 16.0069 105.326 16.4568 104.497 17.0445C104.036 17.3717 103.522 17.6583 102.956 17.6688C102.857 17.6706 102.757 17.6716 102.656 17.6716L102.648 17.6795ZM102.648 6.83749C101.139 6.83749 99.9629 7.16101 99.1446 7.79228C98.3581 8.39987 97.9768 9.18895 97.9768 10.2226C97.9768 11.2563 98.3581 12.0612 99.1525 12.6767C99.9708 13.2922 101.147 13.6078 102.648 13.6078C104.149 13.6078 105.325 13.2922 106.128 12.6767C106.93 12.0612 107.319 11.2563 107.319 10.2226C107.319 9.18895 106.93 8.39198 106.128 7.79228C105.317 7.15312 104.149 6.83749 102.648 6.83749ZM81.167 17.4506V12.7951H86.2354C88.0546 12.7951 89.5322 12.4242 90.6285 11.6903C91.7724 10.917 92.3524 9.67029 92.3524 7.99744C92.3524 6.32458 91.7486 5.05416 90.557 4.23352C89.421 3.42076 87.9672 3.01044 86.2354 3.01044H76.3052V17.4506H81.167ZM81.167 6.91664H86.0288C87.9111 6.91664 87.9111 9.07824 86.0288 9.07824H81.167V6.91664ZM112.491 3.01044V7.08999H118.298V17.4427H123.168V7.08999H128.975V3.01044H112.491ZM61.9898 12.1559H63.4675L68.7026 17.4506H74.9785L67.3442 9.95436L74.3668 3.01044H68.3611L63.3801 8.28151H61.9898V3.01044H57.1201V17.4427H61.9898V12.148V12.1559ZM17.9157 5.00682V11.785C17.9157 13.7498 17.2802 15.2491 16.0171 16.2276C14.7857 17.1902 13.0857 17.6795 10.8137 17.6795C8.54165 17.6795 6.786 17.206 5.59437 16.267C4.37098 15.2964 3.75928 13.8919 3.75928 12.1007V10.5067H8.31922V12.0375C8.31922 12.7083 8.56548 13.592 10.6866 13.592C11.4969 13.592 12.1006 13.4342 12.4899 13.1265C12.8633 12.8266 13.0539 12.29 13.0539 11.5483V5.94583L7.44536 7.0821V3.01044H19.7191V4.62806L17.9316 5.00682H17.9157ZM24.0089 14.8072H31.8736L32.8984 17.4427H37.6569L32.1278 3.01044H23.6832L18.1302 17.4427H23L24.0089 14.8072ZM30.4993 10.9959L27.9333 4.46235L25.3991 10.9959H30.4993ZM55.1102 12.1086C54.2681 15.4858 50.9713 17.6716 46.7133 17.6716C42.3758 17.6716 37.3074 15.7147 37.3074 10.2148C37.3074 7.82384 38.2925 5.85903 40.1593 4.53337C41.772 3.3892 44.0043 2.75793 46.4511 2.75793C48.3259 2.75793 50.2802 3.25506 51.7975 4.12305C53.5452 5.11729 54.6415 6.51396 54.9672 8.14736L55.0546 8.60503H49.8433L49.7479 8.36831C49.311 7.33461 48.2385 6.8296 46.459 6.8296C43.2973 6.8296 42.1851 8.66027 42.1851 10.2226C42.1851 11.3353 42.6459 12.2032 43.5594 12.8029C44.3618 13.3237 45.4819 13.6078 46.7133 13.6078C48.31 13.6078 49.2951 13.0791 50.026 11.8245L50.1372 11.6351H55.2294L55.1102 12.1086Z" fill="url(#paint0_linear_2469_78602)"/>
<path d="M94.2149 32.4463L85.8089 31.3621C83.8887 31.0305 83.0522 30.0681 83.0522 28.4741V28.3479C83.0522 27.3457 83.5686 26.3278 84.6887 25.7202L92.4696 21.98C92.7397 21.8143 92.5649 21.3803 92.271 21.4671C92.271 21.4671 88.2228 21.4671 86.407 21.4828C82.5109 21.4828 83.7203 16.2564 86.836 16.9693L94.5633 19.447C96.7746 20.1092 97.1151 22.9785 95.3021 24.1263C93.0857 25.3336 89.2339 26.8486 86.652 28.048C86.1674 28.2768 86.2825 29.037 87.1287 28.8923C87.1287 28.8923 92.752 28.0429 93.8881 27.9324C97.1236 27.6178 96.8602 32.6774 94.2149 32.4463ZM110.521 20.678L107.939 29.5473C107.391 31.733 105.389 33.2638 103.093 33.2638C95.4656 33.2638 97.0141 26.4885 100.847 28.8058C102.511 29.7304 104.118 29.8787 104.594 29.2632C105.087 28.624 104.936 27.7008 104.245 27.2589L99.7997 24.4419C95.9494 22.6994 100.069 17.0833 102.608 20.6701L105.428 24.4419C105.595 24.7812 106.119 24.6155 106.048 24.2446L105.158 20.4728C104.652 16.7891 111.384 17.0486 110.521 20.6701V20.678Z" fill="url(#paint1_linear_2469_78602)"/>
<path d="M69.2013 25.51L75.9477 32.2338C76.4354 32.7199 77.098 32.9932 77.789 32.9932C79.0859 32.9932 80.1839 32.0466 80.3611 30.7705C80.7816 27.7402 81.4893 22.5826 81.5617 21.6673C81.9628 18.8441 76.5042 18.1442 76.5042 21.6673L77.0841 27.9081C77.1476 28.2395 76.7107 28.3894 76.5042 28.1211C74.6716 26.2142 71.7195 23.0851 69.9848 20.9182C68.7926 19.4289 66.3198 19.5891 65.9125 21.8716L64.2362 30.2312C63.5225 34.0502 70.752 34.3836 69.7336 30.3969L68.6214 25.7231C68.534 25.4074 69.0186 25.2259 69.2013 25.51Z" fill="url(#paint2_linear_2469_78602)"/>
<path d="M31.7054 19.358C31.5545 18.1823 30.2437 17.0065 28.6866 17.5904C27.9478 17.8666 26.6004 19.2414 24.8924 19.9436C22.7793 20.8195 21.5718 21.2298 20.8965 21.6717C20.2927 22.0663 20.0703 22.7764 20.0703 23.2183C20.0703 24.3625 20.2292 31.0145 20.2292 31.0145C20.261 32.3243 21.5559 33.3344 22.7952 33.3344C24.7653 33.3344 25.9093 31.3617 25.3611 29.9571C24.8289 28.6314 24.6302 28.0535 24.6302 28.0535C24.4316 27.4538 24.3522 27.1066 24.8924 26.9567C25.5438 26.7752 26.9897 27.004 28.2131 26.6963C29.7622 26.3018 29.1505 23.3919 27.4663 23.5734C26.6481 23.6681 25.7583 24.3388 25.0116 24.6071C24.5349 24.7807 24.0583 24.6071 23.812 24.2047C23.5657 23.8022 23.6531 23.2104 24.1298 22.8869C25.3134 22.0899 28.1067 21.962 29.5366 21.8752C31.0063 21.7884 31.8881 20.5811 31.7054 19.358Z" fill="url(#paint3_linear_2469_78602)"/>
<path d="M38.7155 26.2922C38.3545 26.1165 38.551 25.7245 38.9409 25.7878C47.5184 27.1814 46.3548 17.6036 41.1298 19.1846C37.9151 20.1574 37.3292 20.3709 33.4388 21.4124C32.3148 21.6491 32.139 22.3735 32.2441 23.2154C32.2882 23.5686 32.4931 24.9453 32.7097 27.1814C32.8812 28.951 32.8461 29.529 32.898 30.8283C32.898 35.8195 40.3444 32.8508 37.7265 29.9037L35.5525 27.3079C35.1377 26.8122 35.587 26.4044 36.05 26.7173L43.3986 32.0996C46.0165 33.8909 48.2854 28.488 45.3766 28.0546C42.4678 27.6212 40.7808 27.297 38.7155 26.2922ZM35.3347 23.5769C35.1439 23.2299 35.2993 22.7949 35.6656 22.64C37.1509 22.012 38.0067 21.5982 39.2506 21.2699C39.7557 21.1366 40.2807 21.3666 40.5551 21.8084C40.9911 22.5104 40.6261 23.4395 39.8155 23.6183C38.4307 23.9236 37.4886 23.9797 35.8926 23.9208C35.6589 23.9121 35.4469 23.7808 35.3347 23.5769Z" fill="url(#paint4_linear_2469_78602)"/>
<path d="M59.5423 27.0158C53.9971 32.8573 53.0938 29.3683 52.3855 27.0158C52.2615 26.6041 52.2684 26.2085 53.1875 26.0941C58.244 25.4645 60.838 25.8363 61.4095 23.9748C62.7829 19.5019 48.2627 16.7954 47.9363 23.6183C47.5592 31.5027 53.3456 33.174 59.3101 31.8709C66.507 29.5339 61.5738 24.8758 59.5423 27.0158ZM51.8639 23.7859C51.5949 20.1136 54.0477 21.2094 56.3029 22.2672C57.3174 22.7383 57.5192 23.4228 56.5933 23.7475C56.5933 23.7475 53.5346 24.4766 52.6132 24.7075C51.8633 24.8954 51.9026 24.3138 51.8639 23.7859Z" fill="url(#paint5_linear_2469_78602)"/>
</g>
<defs>
<linearGradient id="paint0_linear_2469_78602" x1="66.3671" y1="2.75793" x2="66.3671" y2="17.2297" gradientUnits="userSpaceOnUse">
<stop stop-color="#F9F5D9"/>
<stop offset="0.258661" stop-color="white"/>
<stop offset="0.640379" stop-color="#EDECFF"/>
<stop offset="1" stop-color="#FEF4F9"/>
</linearGradient>
<linearGradient id="paint1_linear_2469_78602" x1="56.2622" y1="16.1437" x2="62.2618" y2="39.6028" gradientUnits="userSpaceOnUse">
<stop offset="0.00900268" stop-color="#BBE94B"/>
<stop offset="0.25354" stop-color="#D7E949"/>
<stop offset="0.441709" stop-color="#E5C599"/>
<stop offset="0.689596" stop-color="#C7D289"/>
<stop offset="0.872894" stop-color="#86EF64"/>
<stop offset="1" stop-color="#83D194"/>
</linearGradient>
<linearGradient id="paint2_linear_2469_78602" x1="56.2622" y1="16.1437" x2="62.2618" y2="39.6028" gradientUnits="userSpaceOnUse">
<stop offset="0.00900268" stop-color="#BBE94B"/>
<stop offset="0.25354" stop-color="#D7E949"/>
<stop offset="0.441709" stop-color="#E5C599"/>
<stop offset="0.689596" stop-color="#C7D289"/>
<stop offset="0.872894" stop-color="#86EF64"/>
<stop offset="1" stop-color="#83D194"/>
</linearGradient>
<linearGradient id="paint3_linear_2469_78602" x1="56.2622" y1="16.1437" x2="62.2618" y2="39.6028" gradientUnits="userSpaceOnUse">
<stop offset="0.00900268" stop-color="#BBE94B"/>
<stop offset="0.25354" stop-color="#D7E949"/>
<stop offset="0.441709" stop-color="#E5C599"/>
<stop offset="0.689596" stop-color="#C7D289"/>
<stop offset="0.872894" stop-color="#86EF64"/>
<stop offset="1" stop-color="#83D194"/>
</linearGradient>
<linearGradient id="paint4_linear_2469_78602" x1="56.2622" y1="16.1437" x2="62.2618" y2="39.6028" gradientUnits="userSpaceOnUse">
<stop offset="0.00900268" stop-color="#BBE94B"/>
<stop offset="0.25354" stop-color="#D7E949"/>
<stop offset="0.441709" stop-color="#E5C599"/>
<stop offset="0.689596" stop-color="#C7D289"/>
<stop offset="0.872894" stop-color="#86EF64"/>
<stop offset="1" stop-color="#83D194"/>
</linearGradient>
<linearGradient id="paint5_linear_2469_78602" x1="56.2622" y1="16.1437" x2="62.2618" y2="39.6028" gradientUnits="userSpaceOnUse">
<stop offset="0.00900268" stop-color="#BBE94B"/>
<stop offset="0.25354" stop-color="#D7E949"/>
<stop offset="0.441709" stop-color="#E5C599"/>
<stop offset="0.689596" stop-color="#C7D289"/>
<stop offset="0.872894" stop-color="#86EF64"/>
<stop offset="1" stop-color="#83D194"/>
</linearGradient>
<clipPath id="clip0_2469_78602">
<rect width="132" height="36" fill="white"/>
</clipPath>
</defs>
</svg>
