<svg xmlns="http://www.w3.org/2000/svg" width="120" height="30" viewBox="0 0 120 30" fill="none">
  <path d="M15.4851 0.177734C20.1026 2.21444 23.5251 7.28449 24.1843 13.8921C24.8443 20.4579 22.4942 26.1515 18.3711 29.0605C24.0195 27.4812 27.3178 20.998 26.5758 13.6425C25.8753 6.24527 21.3812 0.593424 15.4851 0.177734Z" fill="#FFDE09"/>
  <path d="M10.0021 0.593392C3.28121 1.25781 -0.717666 8.28195 0.107123 16.3436C0.931912 24.4053 6.24994 30.4736 12.9708 29.7666C19.6502 29.1013 23.6905 22.0781 22.8657 14.0164C21.9995 5.95391 16.6806 -0.113621 10.0021 0.593392ZM2.41586 16.1775C1.26149 9.15421 4.88938 3.46063 9.75445 2.96231C12.9699 2.6301 14.9077 4.33375 15.7325 5.20686C16.2268 5.74692 16.3097 5.95476 15.4849 5.70518C14.0009 5.28949 11.8984 5.12339 10.0426 5.49734C4.88938 6.53656 3.56938 11.2735 6.08431 14.5573C7.52769 16.4271 8.64064 17.5907 10.166 19.1291C15.4443 24.3644 4.06459 26.068 2.41586 16.1775ZM13.3823 27.5229C10.5784 28.063 8.14628 26.5254 7.32149 25.528C6.82712 24.9462 6.66149 24.8218 7.52769 24.9879C9.09445 25.2792 11.2798 25.3201 13.1761 24.7801C18.4536 23.3251 19.4018 18.4629 16.5978 15.3461C15.4435 14.0582 13.2167 12.0214 12.0623 11.0657C6.2491 6.16176 17.917 3.50237 20.3077 13.3929C21.9995 20.3753 18.2474 26.5672 13.3823 27.5229Z" fill="#FFDE09"/>
  <path d="M83.8827 14.5565C83.8827 11.9798 83.8827 9.44476 83.8827 6.86799C83.8827 6.82625 83.8827 6.78451 83.8827 6.70189C83.8827 6.61926 83.9241 6.61841 83.9655 6.61841C84.007 6.61841 84.0484 6.61841 84.0889 6.61841C86.3157 6.61841 88.5002 6.61841 90.727 6.61841C91.7579 6.61841 92.7475 6.70189 93.7362 7.0341C94.3548 7.24194 94.9734 7.53241 95.4678 7.98984C96.2926 8.73774 96.705 9.69349 96.6636 10.8162C96.6636 11.4397 96.5402 12.0633 96.2512 12.6451C95.9216 13.3103 95.2616 13.8086 94.4782 13.9748C94.272 14.0165 94.1892 14.0165 94.1892 14.1826C94.1892 14.3487 94.3126 14.3487 94.5188 14.3904C95.385 14.5565 96.1675 15.014 96.6213 15.6375C96.9923 16.1776 97.1985 16.7594 97.2399 17.3829C97.3227 18.1725 97.2399 18.9204 96.9509 19.6683C96.5799 20.6658 95.8379 21.372 94.8898 21.8294C94.1478 22.2034 93.3644 22.3695 92.5396 22.4529C91.9624 22.4947 91.3439 22.5364 90.7667 22.5364C88.5399 22.5364 86.314 22.5364 84.0872 22.5364C84.0458 22.5364 83.9639 22.5364 83.9224 22.5364C83.881 22.5364 83.8396 22.4947 83.8396 22.4529C83.8396 22.4112 83.8396 22.3695 83.8396 22.2868C83.8827 19.6683 83.8827 17.1333 83.8827 14.5565ZM87.7996 17.5907C87.7996 18.2143 87.7996 18.8378 87.7996 19.4196C87.7996 19.6274 87.7996 19.6274 88.0058 19.6274C89.0774 19.6274 90.1084 19.6274 91.1808 19.6274C91.387 19.6274 91.5931 19.6274 91.7993 19.5857C92.3765 19.5022 92.8709 19.2535 93.2427 18.7543C93.4903 18.3804 93.6137 17.9647 93.6137 17.5073C93.6137 16.7176 93.2841 16.1776 92.6241 15.8454C92.2532 15.6792 91.8408 15.5958 91.4284 15.5958C90.274 15.5958 89.161 15.5958 88.0067 15.5958C87.8419 15.5958 87.8419 15.5958 87.8419 15.7619C87.7996 16.3437 87.7996 16.9672 87.7996 17.5907ZM87.7996 11.3571C87.7996 11.8972 87.7996 12.4789 87.7996 13.019C87.7996 13.2268 87.7996 13.2269 88.0058 13.2269C89.0368 13.2269 90.0264 13.2269 91.0565 13.2269C91.3861 13.2269 91.6751 13.1851 92.0047 13.1025C92.7053 12.9364 93.1591 12.5207 93.2824 11.8145C93.3239 11.5232 93.3239 11.2745 93.2824 10.9831C93.1996 10.4848 92.9115 10.11 92.4577 9.8613C92.0039 9.61171 91.5509 9.52909 91.0557 9.52909C90.0247 9.52909 89.0351 9.52909 88.005 9.52909C87.8402 9.52909 87.8402 9.52909 87.8402 9.69519C87.7996 10.2352 87.7996 10.7753 87.7996 11.3571Z" fill="white"/>
  <path d="M112.701 16.2611C112.701 15.3879 112.701 14.5157 112.701 13.6017C112.701 13.3938 112.701 13.3938 112.495 13.3938C112.041 13.3938 111.589 13.3938 111.093 13.3938C110.929 13.3938 110.928 13.3938 110.928 13.2277C110.928 12.3963 110.928 11.5658 110.928 10.7344C110.928 10.5683 110.929 10.5683 111.093 10.5683C111.464 10.5683 111.835 10.5683 112.165 10.5683C112.248 10.5683 112.33 10.5683 112.412 10.5683C112.701 10.5266 112.907 10.4022 112.99 10.1109C113.031 9.94479 113.072 9.77869 113.113 9.61258C113.154 9.11426 113.236 8.57336 113.278 8.07504C113.278 7.90894 113.278 7.90894 113.443 7.90894C114.309 7.90894 115.174 7.90894 116.04 7.90894C116.247 7.90894 116.247 7.90894 116.247 8.11678C116.247 8.86468 116.247 9.65432 116.247 10.4022C116.247 10.6101 116.247 10.6101 116.453 10.6101C117.566 10.6101 118.679 10.6101 119.792 10.6101C119.999 10.6101 119.999 10.6101 119.999 10.8179C119.999 11.6076 119.999 12.4389 119.999 13.2286C119.999 13.4364 119.999 13.4364 119.792 13.4364C118.679 13.4364 117.566 13.4364 116.453 13.4364C116.205 13.4364 116.205 13.4364 116.205 13.6443C116.205 15.1401 116.205 16.6367 116.205 18.1325C116.205 18.2986 116.205 18.4647 116.247 18.6308C116.329 19.2544 116.659 19.6283 117.318 19.7527C117.772 19.8362 118.225 19.8362 118.72 19.7944C119.05 19.7527 119.38 19.7109 119.751 19.6701C119.834 19.6701 119.916 19.6701 119.916 19.7944C119.916 20.6258 119.916 21.4563 119.916 22.2877C119.916 22.4121 119.874 22.4121 119.792 22.4538C118.803 22.6199 117.855 22.7451 116.865 22.6617C116.247 22.6199 115.587 22.4956 115.01 22.2877C113.773 21.8303 113.031 20.9163 112.783 19.5866C112.701 19.1709 112.701 18.7135 112.66 18.2986C112.701 17.5908 112.701 16.9255 112.701 16.2611Z" fill="white"/>
  <path d="M34.9037 17.0916C35.3981 17.0916 35.9347 17.0916 36.4291 17.0916C36.6353 17.0916 36.6353 17.0916 36.6353 17.2994C36.6353 17.6733 36.6767 18.0056 36.8001 18.3386C37.0063 18.9622 37.4601 19.3778 38.0778 19.6266C38.655 19.8344 39.2736 19.9179 39.8508 19.9179C40.5927 19.9179 41.3347 19.8762 42.0361 19.5857C42.8609 19.2535 43.3139 18.4638 43.1077 17.5907C43.0248 17.0507 42.6953 16.7593 42.2009 16.5932C41.7471 16.4689 41.3347 16.3854 40.8817 16.3019C39.8102 16.0941 38.6964 15.9697 37.6248 15.7619C36.8001 15.6375 36.0167 15.4296 35.2333 15.1383C34.0375 14.64 33.337 13.7669 33.1308 12.4789C32.966 11.6058 33.0074 10.6918 33.337 9.86042C33.6665 8.90468 34.2851 8.19852 35.1099 7.65761C36.0167 7.07582 37.0063 6.78449 38.0372 6.61839C39.3564 6.41054 40.717 6.45228 42.0361 6.66013C42.8609 6.78449 43.6848 7.03408 44.4277 7.49151C45.4172 8.11504 45.9944 8.98731 46.2826 10.11C46.4474 10.6918 46.4888 11.3153 46.5302 11.9389C46.5302 12.1467 46.5302 12.1467 46.324 12.1467C45.293 12.1467 44.3034 12.1467 43.2733 12.1467C43.1085 12.1467 43.0671 12.105 43.0671 11.9389C43.0257 11.6067 42.9843 11.2327 42.8609 10.8996C42.6133 10.1935 42.1189 9.73606 41.4175 9.52821C40.2632 9.196 39.0674 9.196 37.9544 9.69432C36.8415 10.1517 36.7586 11.2319 37.0882 12.0632C37.2116 12.3546 37.4592 12.5616 37.7888 12.645C38.3246 12.8111 38.9017 12.9364 39.4375 13.0607C40.4271 13.2686 41.4581 13.3929 42.4882 13.6008C43.2716 13.7669 44.0964 13.933 44.8384 14.2661C46.0756 14.7644 46.7761 15.6792 46.9409 16.9672C47.0643 17.8812 46.9823 18.7543 46.6519 19.6266C46.3223 20.5406 45.7037 21.2059 44.8789 21.7042C44.137 22.1616 43.3122 22.4103 42.4874 22.5356C41.0034 22.7851 39.5601 22.8269 38.0761 22.619C37.2099 22.4947 36.3446 22.2451 35.5612 21.8294C34.3654 21.1641 33.6234 20.1257 33.2939 18.796C33.1705 18.2977 33.1291 17.7986 33.0877 17.2585C33.0877 17.0924 33.1291 17.0924 33.2939 17.0924C33.8727 17.0916 34.4094 17.0916 34.9037 17.0916Z" fill="white"/>
  <path d="M52.3027 20.4579C52.3027 20.4996 52.3441 21.2058 52.3441 21.5797C52.3855 22.0781 52.3855 22.5772 52.3855 23.0755C52.3855 24.3635 52.3855 25.6941 52.3855 26.982C52.3855 27.0237 52.3855 27.1064 52.3855 27.1481C52.3855 27.2316 52.3441 27.2725 52.2621 27.2725C52.2207 27.2725 52.1793 27.2725 52.1387 27.2725C51.0672 27.2725 50.0362 27.2725 48.9638 27.2725C48.7576 27.2725 48.7576 27.2725 48.7576 27.0646C48.7576 21.6624 48.7576 16.2593 48.7576 10.8987C48.7576 10.6909 48.7576 10.6909 48.9638 10.6909C50.0353 10.6909 51.1077 10.6909 52.1387 10.6909C52.3449 10.6909 52.3449 10.6909 52.3449 10.8987C52.3449 11.5223 52.2621 12.1867 52.2621 12.852C52.2621 12.9354 52.3035 12.9763 52.3855 12.9763C52.4683 13.0181 52.5503 12.9763 52.5917 12.852C53.0041 11.8545 53.746 11.0648 54.488 10.8153C56.0548 10.2335 58.6111 10.3996 60.1779 12.0623C60.9613 12.8937 61.4151 13.9321 61.6213 15.0548C61.8275 16.3845 61.7446 17.6733 61.3737 18.9612C60.9199 20.3327 60.1779 21.4545 58.9001 22.1198C57.952 22.6181 57.2514 22.7433 55.8908 22.7433C54.5303 22.7433 53.1697 21.8293 52.5925 20.5405C52.5511 20.4162 52.4692 20.3744 52.3863 20.4162C52.3441 20.3753 52.3027 20.4162 52.3027 20.4579ZM52.4269 16.7593C52.4269 16.9254 52.4269 17.1332 52.4269 17.2993C52.4683 18.1725 52.8393 18.8786 53.5813 19.3769C54.0351 19.7091 54.5708 19.8344 55.1066 19.8752C56.3024 19.9996 57.292 19.4178 57.7863 18.3377C58.2401 17.2985 58.3221 16.2184 57.9925 15.1374C57.663 14.0573 56.921 13.3503 55.7658 13.2259C54.488 13.1016 53.2094 13.6833 52.6737 15.0548C52.4683 15.6374 52.4269 16.2192 52.4269 16.7593Z" fill="white"/>
  <path d="M72.7516 13.7668C72.9578 13.185 73.5764 11.0657 75.9266 10.6083C76.7099 10.4422 77.8229 10.4422 78.7711 10.6918C79.6778 10.9413 80.4612 11.3979 81.0384 12.1876C81.4922 12.8111 81.6984 13.5173 81.8218 14.3069C81.8632 14.5982 81.8632 14.9304 81.8632 15.2626C81.8632 17.5898 81.8632 19.9587 81.8632 22.2859C81.8632 22.3277 81.8632 22.3694 81.8632 22.452C81.8632 22.5355 81.8218 22.5764 81.7398 22.5764C81.6984 22.5764 81.657 22.5764 81.6164 22.5764C80.5854 22.5764 79.5139 22.5764 78.4829 22.5764C78.2353 22.5764 78.2353 22.5764 78.2353 22.3268C78.2353 20.2492 78.2353 18.1708 78.2353 16.0932C78.2353 15.7192 78.1939 15.3453 78.0705 14.9713C77.8643 14.3895 77.4933 13.9738 76.9161 13.766C76.0499 13.4747 75.1846 13.4747 74.3184 13.8077C73.535 14.099 73.0406 14.7217 72.793 15.5531C72.6283 16.0514 72.5868 16.5923 72.5868 17.1324C72.5868 18.836 72.5868 20.5814 72.5868 22.2859C72.5868 22.3694 72.5868 22.4103 72.5868 22.4938C72.5868 22.5772 72.5454 22.6181 72.4635 22.6181C72.4221 22.6181 72.3806 22.6181 72.3401 22.6181C71.3091 22.6181 70.2375 22.6181 69.2066 22.6181C68.959 22.6181 68.959 22.6181 68.959 22.3685C68.959 18.5865 68.959 14.7635 68.959 10.9814C68.959 10.7318 68.959 10.7318 69.2066 10.7318C70.2375 10.7318 71.3091 10.7318 72.3401 10.7318C72.5463 10.7318 72.5463 10.7318 72.5463 10.9396C72.5049 11.8128 72.3815 13.7242 72.3815 13.8069C72.3815 13.8486 72.4229 13.8904 72.5049 13.8904C72.5868 13.8904 72.7516 13.8086 72.7516 13.7668Z" fill="white"/>
  <path d="M67.1033 16.5932C67.1033 18.4629 67.1033 20.3335 67.1033 22.245C67.1033 22.2868 67.1033 22.3694 67.1033 22.4111C67.1033 22.4946 67.0619 22.5355 66.9799 22.5355C66.9385 22.5355 66.8971 22.5355 66.8565 22.5355C65.8255 22.5355 64.754 22.5355 63.723 22.5355C63.4754 22.5355 63.4754 22.5355 63.4754 22.2859C63.4754 18.5038 63.4754 14.6808 63.4754 10.8988C63.4754 10.6492 63.4754 10.6492 63.723 10.6492C64.754 10.6492 65.8255 10.6492 66.8565 10.6492C67.1041 10.6492 67.1041 10.6492 67.1041 10.8988C67.1033 12.8111 67.1033 14.6817 67.1033 16.5932Z" fill="white"/>
  <path d="M65.2894 6.49487C65.8252 6.49487 66.361 6.49487 66.8976 6.49487C67.021 6.49487 67.0624 6.53661 67.0624 6.66098C67.0624 7.49236 67.0624 8.36462 67.0624 9.196C67.0624 9.36211 67.021 9.36211 66.8562 9.36211C65.7846 9.36211 64.7122 9.36211 63.6407 9.36211C63.4345 9.36211 63.4345 9.36211 63.4345 9.15426C63.4345 8.32289 63.4345 7.49236 63.4345 6.66098C63.4345 6.49487 63.4345 6.49487 63.6407 6.49487C64.2593 6.49487 64.7537 6.49487 65.2894 6.49487Z" fill="white"/>
  <path d="M108.786 11.8137C107.632 10.8162 106.271 10.3179 104.663 10.2761C103.55 10.2761 102.436 10.5257 101.448 11.1075C99.427 12.2711 98.4383 14.1 98.4383 16.5932C98.4383 18.5047 98.974 20.0423 100.17 21.2059C101.366 22.3277 102.891 22.9095 104.746 22.9095C106.56 22.9095 108.209 22.2442 109.57 20.9563C109.611 20.9145 109.611 20.8728 109.57 20.8319L107.715 18.7952C107.715 18.7952 107.673 18.7535 107.632 18.7535C107.632 18.7535 107.59 18.7535 107.549 18.7952C106.807 19.5431 105.859 19.9588 104.745 19.9588C103.591 19.9588 102.272 19.0857 102.065 17.9221C102.065 17.8803 102.107 17.8386 102.148 17.8386H110.312C110.353 17.8386 110.394 17.7969 110.394 17.7551V16.0515C110.394 14.2243 109.941 12.8111 108.786 11.8137ZM102.231 15.3879C102.19 15.3879 102.148 15.3462 102.148 15.3044C102.437 14.0165 103.673 13.2677 104.622 13.2677C105.24 13.2677 105.776 13.4756 106.23 13.8078C106.601 14.14 106.848 14.7218 106.972 15.3036C106.972 15.3453 106.93 15.3871 106.889 15.3871L102.231 15.3879Z" fill="white"/>
</svg>